# xmcd
#
# Track frame offsets:
#	150
#	12847
#	43817
#	55543
#	67570
#	78160
#	99755
#	112635
#	128045
#	145463
#	158793
#	170745
#	185443
#	202182
#	215332
#	228370
#	240625
#	253025
#	264030
#	279116
#	291245
#	304163
#	320668
#	335143
#	347424
#
# Disc length: 4774 seconds
#
# Revision: 0
# Processed by: cddbd v1.5.1PL0 Copyright (c) Steve Scherf et al.
# Submitted via: EasyCDDAExtractor 8.0.1.1
#
DISCID=5812a419
DTITLE=Various Artist - Les Plus Grands Artistes De Blues - Cd4
DYEAR=2005
DGENRE=Blues
TTITLE0=Jimmy Witherspoon - Nobody Knows You
TTITLE1=Ray Charles - Georgia On My Mind
TTITLE2=Johnny Otis - Willie And The Hand Jive
TTITLE3=Memphis Slim - Let The Good Times Roll Creole
TTITLE4=Robert Johnson - Milkcow Caf Blues
TTITLE5=B.B. King - Every Day I Have The Blues
TTITLE6=T.Bone Walker - Midnight Blues
TTITLE7=Muddy Waters - Honey Bee
TTITLE8=Buddy Guy - Stone Crazy
TTITLE9=Bessie Smith - Baby Won't You Please Com Home
TTITLE10=John Lee Hooker - Hard Headed Woman
TTITLE11=John Mayall - Why Sorry
TTITLE12=Mississipi Fred Mc Dowell - You Ain't Gonna Worry My Life Anymore
TTITLE13=Charles Brown - Big Legged Woman
TTITLE14=Elton Britt - Blues Texas Moonlight
TTITLE15=Lightnin' Hopkins - Lonesome Dog
TTITLE16=Roy Milton - Big Fat Mama
TTITLE17=Sonny Terry and Brownee Micghee - Stranger Blues
TTITLE18=Dr. John - Zu Zu Man
TTITLE19=Memphis Slim - John Henry
TTITLE20=John Lee Hooker - Morning Blues
TTITLE21=Buddy Guy and Junior Wells - Satisfaction
TTITLE22=Ray Charles - This Love Of Mine
TTITLE23=T. Bone Walker - No Worry Blues
TTITLE24=Wilbert Harrison - Kansas City
EXTD=
EXTT0=
EXTT1=
EXTT2=
EXTT3=
EXTT4=
EXTT5=
EXTT6=
EXTT7=
EXTT8=
EXTT9=
EXTT10=
EXTT11=
EXTT12=
EXTT13=
EXTT14=
EXTT15=
EXTT16=
EXTT17=
EXTT18=
EXTT19=
EXTT20=
EXTT21=
EXTT22=
EXTT23=
EXTT24=
PLAYORDER=
